<svg xmlns="http://www.w3.org/2000/svg" width="41" height="41" viewBox="0 0 41 41" fill="none">
<rect width="41" height="41" fill="#F5F5F5"/>
<circle cx="20.5" cy="20.5" r="20" fill="#EE0F0F" stroke="#0D0D0D"/>
<path d="M8.75 19.8594C8.75 19.0677 8.78125 18.224 8.84375 17.3281C8.48958 17.2552 8.17448 17.1589 7.89844 17.0391C7.6224 16.9141 7.4349 16.7891 7.33594 16.6641C7.33594 15.987 7.4349 15.3984 7.63281 14.8984H10.5781C10.9896 14.8984 11.2969 14.9922 11.5 15.1797C11.7083 15.3672 11.8411 15.6016 11.8984 15.8828C11.9557 16.1641 11.9844 16.513 11.9844 16.9297C11.9844 17.612 11.9583 18.3177 11.9062 19.0469C11.8594 19.776 11.7865 20.6927 11.6875 21.7969C11.6302 22.3594 11.5729 23.0339 11.5156 23.8203C11.0938 24.0495 10.625 24.1641 10.1094 24.1641C9.66146 24.1641 9.23958 24.0833 8.84375 23.9219C8.78125 22.9062 8.75 21.5521 8.75 19.8594ZM15.7578 17.9844C15.4922 17.8177 15.2292 17.599 14.9688 17.3281C14.7083 17.0573 14.4896 16.7448 14.3125 16.3906C14.1406 16.0365 14.0547 15.6667 14.0547 15.2812C14.0547 14.5104 14.2266 13.8724 14.5703 13.3672C14.9141 12.862 15.375 12.4896 15.9531 12.25C16.5365 12.0104 17.1901 11.8906 17.9141 11.8906C19.1328 11.8906 20.0755 12.1406 20.7422 12.6406C21.4089 13.1354 21.7422 13.8828 21.7422 14.8828C21.7422 15.4766 21.5625 16.0026 21.2031 16.4609C20.8438 16.9193 20.4167 17.3021 19.9219 17.6094C20.5885 17.9531 21.1068 18.3854 21.4766 18.9062C21.8516 19.4271 22.0391 19.9922 22.0391 20.6016C22.0391 21.3099 21.8646 21.9323 21.5156 22.4688C21.1719 23.0052 20.6875 23.4219 20.0625 23.7188C19.4427 24.0104 18.7344 24.1562 17.9375 24.1562C17.1979 24.1562 16.5078 24.0234 15.8672 23.7578C15.2318 23.4922 14.7188 23.1042 14.3281 22.5938C13.9427 22.0781 13.75 21.4635 13.75 20.75C13.75 20.2917 13.8438 19.8932 14.0312 19.5547C14.2188 19.2161 14.4479 18.9349 14.7188 18.7109C14.9896 18.487 15.3359 18.2448 15.7578 17.9844ZM19.1172 14.7344C19.1172 14.5729 19.1068 14.4375 19.0859 14.3281C18.9557 14.224 18.7917 14.1458 18.5938 14.0938C18.401 14.0417 18.1927 14.0156 17.9688 14.0156C17.7865 14.0156 17.6094 14.0339 17.4375 14.0703C17.2708 14.1016 17.1224 14.1484 16.9922 14.2109C16.9453 14.2786 16.9062 14.4349 16.875 14.6797C16.849 14.9193 16.8359 15.125 16.8359 15.2969C16.9661 15.5417 17.1901 15.7917 17.5078 16.0469C17.8255 16.2969 18.1771 16.5286 18.5625 16.7422C18.7083 16.5391 18.8359 16.2318 18.9453 15.8203C19.0599 15.4089 19.1172 15.0469 19.1172 14.7344ZM17.9297 22.125C18.4349 22.125 18.8281 22.013 19.1094 21.7891C19.1562 21.7005 19.1927 21.5286 19.2188 21.2734C19.2448 21.0182 19.2578 20.8099 19.2578 20.6484C19.0859 20.4036 18.8099 20.1458 18.4297 19.875C18.0495 19.599 17.6328 19.3542 17.1797 19.1406C16.9505 19.2812 16.7474 19.474 16.5703 19.7188C16.3932 19.9635 16.2578 20.2318 16.1641 20.5234C16.1849 20.7891 16.2604 21.0625 16.3906 21.3438C16.526 21.625 16.6875 21.8307 16.875 21.9609C17.2031 22.0703 17.5547 22.125 17.9297 22.125ZM23.3516 20.1094C23.3516 19.8385 23.388 19.6094 23.4609 19.4219C23.5339 19.2344 23.6615 18.9896 23.8438 18.6875L25.7422 18.5469L25.4219 16.0938C25.599 15.8073 25.849 15.5885 26.1719 15.4375C26.5 15.2812 26.8594 15.2031 27.25 15.2031C27.7135 15.2031 28.0599 15.3099 28.2891 15.5234L27.9922 18.375L30.4922 18.1797C30.5391 18.3828 30.5625 18.5625 30.5625 18.7188C30.5625 19.2344 30.3594 19.8932 29.9531 20.6953H28.125V23.2422C27.7917 23.6276 27.3932 23.8203 26.9297 23.8203C26.7891 23.8203 26.6302 23.8021 26.4531 23.7656C26.276 23.7292 26.1016 23.6771 25.9297 23.6094L25.8281 20.7031H23.3828C23.362 20.5156 23.3516 20.3177 23.3516 20.1094Z" fill="#FFFBFB"/>
</svg>